<mxfile host="app.diagrams.net" modified="2024-05-27T11:23:28.177Z" agent="Mozilla/5.0 (Macintosh; Intel Mac OS X 10_15_7) AppleWebKit/537.36 (KHTML, like Gecko) Chrome/125.0.0.0 Safari/537.36" version="24.4.8" etag="0dVVPNJjV_SnuH3L1r1W" type="github">
  <diagram name="페이지-1" id="v4ECEQbMkaUxjjArd9e2">
    <mxGraphModel>
      <root>
        <mxCell id="0" />
        <mxCell id="1" parent="0" />
      </root>
    </mxGraphModel>
  </diagram>
</mxfile>
